<?xml version="1.0" encoding="UTF-8"?>
<svg xmlns="http://www.w3.org/2000/svg" version="1.1" width="100" height="100" viewBox="0 0 100 100"><rect x="0" y="0" width="100" height="100" fill="#ffffff"/><g transform="scale(3.03)"><g transform="translate(0,0)"><path fill-rule="evenodd" d="M10 0L10 2L11 2L11 0ZM12 0L12 1L13 1L13 2L12 2L12 4L14 4L14 7L15 7L15 6L16 6L16 8L15 8L15 9L14 9L14 8L13 8L13 9L12 9L12 7L13 7L13 5L11 5L11 6L10 6L10 4L11 4L11 3L8 3L8 4L9 4L9 5L8 5L8 7L9 7L9 8L6 8L6 9L8 9L8 10L5 10L5 12L6 12L6 13L5 13L5 15L4 15L4 14L2 14L2 16L1 16L1 17L0 17L0 19L1 19L1 20L2 20L2 19L1 19L1 17L2 17L2 18L3 18L3 20L4 20L4 19L5 19L5 18L6 18L6 19L7 19L7 20L6 20L6 21L5 21L5 22L4 22L4 21L3 21L3 22L4 22L4 23L3 23L3 24L2 24L2 25L3 25L3 24L6 24L6 25L7 25L7 24L6 24L6 23L7 23L7 22L8 22L8 18L9 18L9 19L10 19L10 18L9 18L9 17L12 17L12 19L11 19L11 20L9 20L9 21L10 21L10 22L9 22L9 24L10 24L10 22L12 22L12 23L11 23L11 24L12 24L12 25L11 25L11 26L12 26L12 25L15 25L15 24L17 24L17 25L19 25L19 26L20 26L20 27L18 27L18 28L17 28L17 26L14 26L14 28L13 28L13 27L12 27L12 29L11 29L11 27L10 27L10 26L9 26L9 25L8 25L8 27L10 27L10 29L9 29L9 28L8 28L8 33L11 33L11 32L10 32L10 31L11 31L11 30L12 30L12 29L16 29L16 30L13 30L13 31L12 31L12 33L19 33L19 32L20 32L20 33L21 33L21 32L24 32L24 33L25 33L25 32L24 32L24 31L27 31L27 32L28 32L28 33L29 33L29 31L30 31L30 32L31 32L31 33L32 33L32 32L31 32L31 31L32 31L32 30L31 30L31 29L32 29L32 28L33 28L33 27L32 27L32 26L33 26L33 24L32 24L32 26L31 26L31 25L30 25L30 24L31 24L31 23L32 23L32 22L33 22L33 21L32 21L32 20L31 20L31 19L32 19L32 18L33 18L33 17L32 17L32 16L31 16L31 15L32 15L32 14L33 14L33 13L31 13L31 15L30 15L30 13L29 13L29 10L28 10L28 8L27 8L27 9L26 9L26 8L25 8L25 3L23 3L23 1L24 1L24 0L23 0L23 1L21 1L21 3L20 3L20 4L18 4L18 3L17 3L17 1L20 1L20 0L17 0L17 1L15 1L15 0L14 0L14 1L13 1L13 0ZM8 1L8 2L9 2L9 1ZM14 1L14 2L13 2L13 3L14 3L14 4L15 4L15 5L17 5L17 8L19 8L19 9L15 9L15 10L14 10L14 9L13 9L13 10L12 10L12 9L11 9L11 8L10 8L10 9L9 9L9 12L11 12L11 13L10 13L10 16L11 16L11 14L14 14L14 15L12 15L12 16L14 16L14 17L13 17L13 18L14 18L14 19L12 19L12 20L11 20L11 21L13 21L13 22L14 22L14 23L12 23L12 24L14 24L14 23L15 23L15 22L17 22L17 24L19 24L19 25L20 25L20 26L21 26L21 27L23 27L23 28L21 28L21 29L20 29L20 28L19 28L19 29L17 29L17 28L16 28L16 29L17 29L17 30L16 30L16 31L17 31L17 32L19 32L19 31L20 31L20 30L21 30L21 31L22 31L22 30L23 30L23 31L24 31L24 27L23 27L23 26L24 26L24 25L23 25L23 26L21 26L21 25L22 25L22 24L23 24L23 23L24 23L24 24L27 24L27 22L25 22L25 21L27 21L27 20L28 20L28 19L26 19L26 18L25 18L25 17L28 17L28 18L29 18L29 17L30 17L30 19L29 19L29 20L30 20L30 21L28 21L28 24L30 24L30 23L29 23L29 22L30 22L30 21L31 21L31 20L30 20L30 19L31 19L31 16L30 16L30 15L29 15L29 13L28 13L28 16L26 16L26 14L25 14L25 13L27 13L27 12L28 12L28 11L27 11L27 10L25 10L25 9L24 9L24 8L23 8L23 9L22 9L22 8L21 8L21 7L22 7L22 6L21 6L21 4L22 4L22 5L23 5L23 7L24 7L24 5L23 5L23 4L22 4L22 3L21 3L21 4L20 4L20 5L18 5L18 4L17 4L17 3L15 3L15 1ZM9 6L9 7L10 7L10 6ZM11 6L11 7L12 7L12 6ZM18 6L18 7L19 7L19 8L20 8L20 7L21 7L21 6L20 6L20 7L19 7L19 6ZM0 8L0 10L1 10L1 9L3 9L3 10L2 10L2 11L1 11L1 12L0 12L0 13L1 13L1 12L4 12L4 9L5 9L5 8ZM29 8L29 9L30 9L30 8ZM31 8L31 10L33 10L33 9L32 9L32 8ZM10 9L10 11L11 11L11 9ZM19 9L19 10L18 10L18 11L19 11L19 10L20 10L20 13L19 13L19 12L15 12L15 11L17 11L17 10L15 10L15 11L14 11L14 10L13 10L13 11L12 11L12 13L14 13L14 14L15 14L15 15L16 15L16 16L15 16L15 17L14 17L14 18L15 18L15 20L13 20L13 21L15 21L15 20L16 20L16 21L17 21L17 22L20 22L20 25L21 25L21 24L22 24L22 23L21 23L21 22L24 22L24 21L25 21L25 19L23 19L23 18L24 18L24 17L25 17L25 16L22 16L22 15L21 15L21 14L22 14L22 13L23 13L23 14L24 14L24 15L25 15L25 14L24 14L24 13L23 13L23 10L24 10L24 9L23 9L23 10L21 10L21 9ZM6 11L6 12L7 12L7 13L6 13L6 14L8 14L8 15L6 15L6 16L3 16L3 18L4 18L4 17L6 17L6 18L7 18L7 17L8 17L8 16L9 16L9 13L8 13L8 11ZM13 11L13 12L14 12L14 13L15 13L15 14L16 14L16 15L17 15L17 16L18 16L18 15L19 15L19 17L15 17L15 18L19 18L19 19L16 19L16 20L19 20L19 21L22 21L22 20L21 20L21 19L20 19L20 18L19 18L19 17L22 17L22 18L23 18L23 17L22 17L22 16L20 16L20 14L21 14L21 13L22 13L22 12L21 12L21 13L20 13L20 14L19 14L19 13L15 13L15 12L14 12L14 11ZM25 11L25 12L26 12L26 11ZM30 11L30 12L31 12L31 11ZM6 16L6 17L7 17L7 16ZM28 16L28 17L29 17L29 16ZM19 19L19 20L20 20L20 19ZM23 20L23 21L24 21L24 20ZM0 21L0 25L1 25L1 22L2 22L2 21ZM6 21L6 22L7 22L7 21ZM25 25L25 28L28 28L28 25ZM29 25L29 28L30 28L30 29L31 29L31 28L30 28L30 27L31 27L31 26L30 26L30 25ZM26 26L26 27L27 27L27 26ZM19 29L19 30L20 30L20 29ZM25 29L25 30L28 30L28 31L29 31L29 30L28 30L28 29ZM30 30L30 31L31 31L31 30ZM13 31L13 32L15 32L15 31ZM0 0L0 7L7 7L7 0ZM1 1L1 6L6 6L6 1ZM2 2L2 5L5 5L5 2ZM26 0L26 7L33 7L33 0ZM27 1L27 6L32 6L32 1ZM28 2L28 5L31 5L31 2ZM0 26L0 33L7 33L7 26ZM1 27L1 32L6 32L6 27ZM2 28L2 31L5 31L5 28Z" fill="#000000"/></g></g></svg>
